PathFileType	4	(X/Y/Z)	D:\TRACE\spot_10-12-23\spot_arm_body_motion_3_8-platform.trc
DataRate	CameraRate	NumFrames	NumMarkers	Units	OrigDataRate	OrigDataStartFrame	OrigNumFrames
100.00	100.00	      72	5	mm	100.00	4376	      7000
Frame#	Time	Left_Front			Right_Front			Left_Aft			Right_Aft			Post			
		X1	Y1	Z1	X2	Y2	Z2	X3	Y3	Z3	X4	Y4	Z4	X5	Y5	Z5	

4376	43.750	-804.57654	10.92959	-640.71863	768.30078	15.14766	-633.63904	-721.47937	2.25904	497.36197	695.86371	6.37611	583.41107	-21.64964	749.74774	-953.36578	
4377	43.760	-804.66748	9.56526	-640.90106	768.13049	13.93313	-633.84534	-721.73877	3.08362	497.17993	695.77478	7.14789	583.23572	-22.16941	748.74292	-954.77844	
4378	43.770	-804.68536	8.09980	-641.11438	767.96149	12.57630	-634.19147	-721.89117	3.83449	496.88101	695.50604	7.83300	582.94733	-21.68900	747.31720	-955.93103	
4379	43.780	-804.83636	7.34386	-641.38983	767.71381	11.97510	-634.41437	-721.98834	4.26927	496.82782	695.26788	8.50150	582.76544	-21.93552	745.69995	-957.67755	
4380	43.790	-805.27966	6.73569	-641.61298	767.37836	11.16454	-634.67596	-722.10071	4.91060	496.36560	694.99725	9.26957	582.63763	-22.04862	744.34174	-958.94135	
4381	43.800	-805.31580	6.04989	-641.64966	767.34747	10.24089	-634.84137	-722.10352	5.56054	496.06085	694.97736	9.81587	582.45331	-22.20037	743.23260	-960.83636	
4382	43.810	-804.91766	4.87454	-641.92883	767.62701	9.46405	-634.91034	-722.29834	6.15524	495.98807	694.91376	10.58415	582.12115	-22.22417	741.85590	-962.26794	
4383	43.820	-805.29895	4.27326	-642.24219	767.33868	8.57889	-635.23663	-722.34766	6.77563	495.73355	694.69843	11.13535	581.87592	-22.50418	740.83325	-963.79840	
4384	43.830	-805.36194	2.98981	-642.37909	767.11340	7.59828	-635.53351	-722.39563	7.48407	495.49521	694.62195	11.88155	581.52606	-22.23742	739.19049	-965.14355	
4385	43.840	-805.34973	1.91700	-642.61548	767.34088	6.69178	-635.71790	-722.55658	8.12748	495.24710	694.67395	12.52933	581.26398	-22.32564	737.71594	-966.10809	
4386	43.850	-805.57343	1.29839	-642.95953	767.35065	5.52742	-635.96259	-722.62146	8.58852	495.03140	694.64966	13.36174	581.07367	-22.37314	736.18719	-967.36542	
4387	43.860	-805.46466	0.54736	-643.14386	767.16919	4.50115	-636.14825	-722.51062	9.33985	494.81778	694.39941	13.94591	580.85748	-22.64173	734.90802	-968.43298	
4388	43.870	-805.35535	-0.46452	-643.31439	767.30804	3.76467	-636.32355	-722.45953	10.12795	494.75598	694.44202	14.86191	580.57794	-22.24712	733.20886	-969.44861	
4389	43.880	-805.58521	-1.81509	-643.62134	767.37762	2.85181	-636.48615	-722.54114	10.79574	494.51584	694.51672	15.63806	580.36542	-22.30377	731.86395	-970.13745	
4390	43.890	-805.65442	-2.81575	-643.76263	767.15088	1.44494	-636.93329	-722.63654	11.39837	494.18454	694.97070	17.16450	580.29315	-22.43213	730.44464	-971.30084	
4391	43.900	-805.67584	-3.85078	-643.98291	767.28241	0.40158	-637.03027	-722.61084	12.04380	493.97067	694.86047	17.78236	580.20453	-22.68828	728.71356	-972.54749	
4392	43.910	-805.61572	-4.69140	-644.20752	767.21960	-0.45024	-637.32178	-722.41730	12.63046	493.55637	694.96155	18.70581	579.86938	-22.42314	727.15442	-973.58630	
4393	43.920	-805.59351	-5.34459	-644.48962	767.14185	-1.27417	-637.55060	-722.45361	13.38478	493.30002	694.81305	19.64141	579.50616	-22.13755	725.94434	-974.76898	
4394	43.930	-805.23499	-6.95807	-644.65057	767.40472	-2.23356	-637.40851	-722.49475	14.26279	493.06589	695.04132	20.29500	579.28259	-22.50762	724.48883	-976.62952	
4395	43.940	-805.35046	-7.90033	-644.92462	767.32727	-3.33274	-637.89545	-722.26215	14.78320	492.82507	695.18115	21.01959	578.93042	-22.38056	722.97217	-977.93298	
4396	43.950	-805.08551	-8.81690	-645.24353	767.54871	-4.33692	-637.91364	-722.10767	15.32835	492.60843	695.18243	21.85442	578.69415	-21.98515	721.48206	-979.46167	
4397	43.960	-804.87115	-9.75914	-645.32416	767.82306	-5.39749	-638.29034	-721.99091	15.98528	492.34399	695.14191	22.49261	578.55408	-21.44174	719.71747	-981.31836	
4398	43.970	-804.57184	-10.81184	-645.32355	768.03857	-6.20828	-638.46356	-721.73444	16.78129	492.16687	695.61835	24.02353	578.94312	-21.37243	718.27118	-982.64178	
4399	43.980	-804.48895	-11.53942	-645.70508	768.01782	-7.04653	-638.77557	-721.60754	17.44280	491.91458	696.16498	24.88647	578.61987	-21.52517	717.00684	-984.08185	
4400	43.990	-804.21130	-12.96786	-645.88177	768.34198	-8.27111	-638.89178	-721.56262	18.24187	491.57330	695.97339	25.30725	578.22931	-21.46204	715.38464	-985.67072	
4401	44.000	-804.19019	-13.63972	-646.12402	768.47357	-9.10519	-639.14868	-721.29041	18.87393	491.38531	696.25745	26.12354	577.76465	-20.97539	713.85339	-986.67810	
4402	44.010	-803.77313	-15.17060	-646.35645	768.67590	-10.41044	-639.37714	-720.87476	19.47735	491.38266	696.30658	26.92652	577.52130	-20.80149	712.22083	-987.93250	
4403	44.020	-803.86603	-15.96206	-646.38440	768.88458	-11.41898	-639.54095	-720.79181	20.11645	490.88531	696.55780	27.63694	577.25128	-20.71863	710.86896	-989.26874	
4404	44.030	-803.74402	-16.72926	-646.65942	769.41095	-12.05863	-639.68903	-720.56592	20.78421	490.63242	696.92676	28.56941	576.94397	-20.35435	709.19568	-990.34601	
4405	44.040	-803.23492	-17.83238	-646.92896	769.57031	-13.09714	-640.02386	-720.29865	21.45334	490.30292	697.21838	29.16677	576.54053	-20.15214	707.88940	-991.42285	
4406	44.050	-802.97180	-18.79634	-647.18805	769.64777	-14.09596	-640.17523	-719.96521	22.13269	490.08569	697.23615	29.87834	576.43634	-19.89428	706.39850	-992.28894	
4407	44.060	-802.70593	-19.78569	-647.32098	770.01312	-15.22570	-640.39117	-719.76324	22.69246	489.89728	697.56274	30.68957	576.30707	-19.52061	705.21716	-993.38776	
4408	44.070	-802.40924	-20.75623	-647.52795	770.34979	-16.00179	-640.60760	-719.65466	23.31634	489.63846	697.89752	31.58832	576.07281	-19.51432	703.34009	-994.53662	
4409	44.080	-802.17810	-21.44302	-647.70667	770.48920	-16.82534	-640.83893	-719.38550	24.01480	489.27631	697.95764	32.14120	575.85974	-19.14720	702.18378	-995.83386	
4410	44.090	-801.87482	-22.50014	-647.85577	770.75653	-17.76193	-641.11157	-718.94287	24.62642	489.07422	698.38641	32.96508	575.42896	-18.87053	700.80170	-996.86316	
4411	44.100	-801.46057	-23.63979	-647.97314	771.13477	-18.81151	-641.12231	-718.75604	25.32384	488.78906	698.78369	33.85892	575.14093	-18.45831	699.19476	-998.00098	
4412	44.110	-801.11774	-24.44591	-648.34174	771.50836	-19.71615	-641.30585	-718.28290	25.96726	488.53201	699.08038	34.52850	574.98950	-18.09638	697.65356	-999.28021	
4413	44.120	-800.54602	-25.62742	-648.56659	771.66046	-20.68213	-641.48676	-717.97339	26.62717	488.27209	699.23242	35.33406	574.67584	-17.93318	696.27356	-1000.62201	
4414	44.130	-800.50372	-26.31898	-648.77924	771.78394	-21.67126	-641.62579	-717.82739	27.07900	488.15451	699.68890	36.13984	574.33844	-17.51654	694.77985	-1002.04163	
4415	44.140	-800.12335	-27.59762	-648.82062	772.02332	-22.47180	-641.85608	-717.45135	27.85392	487.87524	699.93420	36.69995	573.99927	-17.21199	693.39001	-1003.31140	
4416	44.150	-800.19141	-27.95580	-649.01904	772.51764	-23.42082	-642.03046	-717.08136	28.32725	487.55716	700.05579	37.26339	573.78986	-16.87582	691.97028	-1004.64282	
4417	44.160	-799.62512	-28.90057	-649.20978	772.90668	-24.18896	-642.16174	-716.74927	28.96368	487.40100	700.52533	38.28663	573.49017	-16.23253	690.74469	-1006.14868	
4418	44.170	-799.27271	-29.89511	-649.23193	773.21820	-24.98283	-642.50281	-716.36841	29.57038	487.19830	700.78436	38.86647	573.35065	-16.24531	689.29431	-1007.18347	
4419	44.180	-798.74854	-30.96467	-649.42865	773.95337	-26.07682	-642.53571	-716.02527	30.03248	486.98120	701.05798	39.27110	572.97705	-15.54547	688.14508	-1008.44556	
4420	44.190	-798.25049	-31.80371	-649.80310	774.17560	-26.80062	-642.68408	-715.58466	30.51460	486.66818	701.48706	39.86076	572.82037	-15.21096	686.71198	-1009.38623	
4421	44.200	-798.27856	-32.27334	-649.80627	774.36414	-27.45206	-642.97357	-715.37689	31.04856	486.40637	701.96051	40.69508	572.59430	-14.99339	685.74298	-1010.52820	
4422	44.210	-797.51611	-33.11839	-650.12054	774.68469	-28.18761	-643.12732	-715.07056	31.55548	486.24673	702.21259	41.33403	572.44781	-15.01791	684.65002	-1011.74127	
4423	44.220	-797.52515	-33.66557	-650.03778	775.03436	-28.95871	-643.13330	-714.66150	32.08171	486.10040	702.47369	41.67911	572.30463	-14.36184	683.58044	-1012.53436	
4424	44.230	-797.14478	-34.53059	-650.05182	775.50299	-29.63535	-643.09692	-714.25812	32.55916	485.97647	702.94592	42.33633	572.03528	-14.05789	682.38385	-1013.32379	
4425	44.240	-796.67023	-35.55380	-650.20105	775.59772	-30.32901	-643.39832	-714.04218	32.89306	485.82095	703.31323	42.97459	571.84766	-13.54771	681.28064	-1014.21057	
4426	44.250	-796.27771	-36.02364	-650.40552	775.98169	-31.04313	-643.46350	-713.74341	33.41708	485.57663	702.99982	43.38692	571.89691	-13.23476	680.27588	-1014.77911	
4427	44.260	-796.09918	-36.47189	-650.50604	776.49628	-31.68293	-643.52551	-713.21094	34.01569	485.25986	703.42920	43.92204	571.77661	-12.87197	679.03497	-1015.58777	
4428	44.270	-795.57178	-37.35695	-650.59332	776.69531	-32.32014	-643.69940	-712.87256	34.45481	485.10074	704.00018	44.68268	571.43707	-12.28690	678.05817	-1016.24292	
4429	44.280	-795.18481	-38.16791	-650.74603	777.25476	-33.21140	-643.85071	-712.60474	34.74762	484.93338	704.48920	45.17171	570.98041	-12.23909	676.89185	-1016.85724	
4430	44.290	-795.00787	-38.89342	-650.92590	777.70667	-34.06374	-644.05292	-712.19226	35.28593	484.68512	704.73572	45.58264	570.82922	-11.63575	675.81689	-1017.57233	
4431	44.300	-794.63727	-39.65668	-651.03064	778.00006	-34.43019	-644.16290	-711.85168	35.73624	484.46478	705.22272	46.19477	570.73700	-11.41747	674.84546	-1017.98322	
4432	44.310	-794.39313	-40.08869	-651.06854	778.41113	-34.98639	-644.14117	-711.45514	36.19049	484.34518	705.68958	46.94419	570.48999	-11.24172	673.76721	-1018.63702	
4433	44.320	-794.05524	-40.58598	-651.19403	778.80627	-35.95642	-644.18054	-711.15900	36.67746	484.17441	706.22473	47.52135	570.25018	-10.79007	672.68335	-1019.37244	
4434	44.330	-793.53491	-41.37144	-651.37012	778.85461	-36.64877	-644.26904	-710.89331	37.17138	483.99509	706.51141	47.87188	570.12708	-10.70381	671.85931	-1020.32208	
4435	44.340	-793.09412	-42.30452	-651.51233	779.21545	-37.25793	-644.31964	-710.45099	37.55051	483.81750	706.86481	48.48876	570.00293	-10.32997	670.84985	-1021.10974	
4436	44.350	-792.83392	-43.00623	-651.55664	779.30194	-37.85888	-644.53540	-710.28754	37.91277	483.57556	707.17786	48.95401	569.92798	-9.81686	669.83716	-1021.87201	
4437	44.360	-792.59119	-43.44970	-651.70691	779.83527	-38.47354	-644.68848	-709.87891	38.20027	483.37756	707.46484	49.33263	569.88409	-9.59618	668.99371	-1022.79645	
4438	44.370	-792.50989	-43.65828	-651.70203	780.22638	-38.78374	-644.81384	-709.47894	38.59342	483.26028	707.96967	49.89030	569.65198	-9.11175	668.20715	-1023.66016	
4439	44.380	-792.17444	-44.40326	-651.66168	780.56000	-39.13811	-644.89697	-709.23676	38.91977	483.19882	708.23291	50.25246	569.45392	-8.93355	667.28815	-1024.37903	
4440	44.390	-791.78693	-45.00195	-651.87964	780.89508	-39.60769	-644.78943	-708.99115	39.33872	483.05569	708.39331	50.66661	569.28094	-8.56107	666.34570	-1025.54224	
4441	44.400	-791.47186	-45.31070	-651.96649	781.37903	-40.37899	-644.91986	-708.63452	39.72278	482.91956	708.97668	51.05045	569.20032	-8.42986	665.77484	-1026.37048	
4442	44.410	-790.96802	-45.88387	-652.14075	781.55939	-40.82531	-645.06482	-708.35059	40.07953	482.74371	709.32843	51.44705	569.06042	-7.91736	665.19653	-1027.05469	
4443	44.420	-790.65051	-46.40490	-652.13647	781.72089	-41.29066	-645.30090	-707.86719	40.26776	482.84094	709.65466	51.93863	568.92261	-7.65920	664.16522	-1027.77905	
4444	44.430	-790.28613	-47.12734	-652.15460	781.86029	-41.62347	-645.44873	-707.61603	40.55851	482.57175	709.92584	52.34850	568.91431	-7.47054	663.44855	-1028.53577	
4445	44.440	-790.06299	-47.68202	-652.13678	782.17102	-42.25661	-645.43134	-707.43774	40.66843	482.65433	710.03229	52.76923	568.89917	-6.94389	662.78851	-1029.13440	
4446	44.450	-790.10870	-47.94241	-652.18634	782.56067	-42.74501	-645.42273	-707.25397	40.97047	482.47174	710.23608	53.25100	568.69476	-6.81736	662.06647	-1029.52869	
4447	44.460	-789.89215	-48.25485	-652.35083	782.93433	-43.06450	-645.37817	-706.89679	41.22886	482.34924	710.59296	53.45986	568.52350	-6.55024	661.19977	-1030.11096	
